<svg xmlns="http://www.w3.org/2000/svg" width="960" height="360" viewBox="0 0 960 360" role="img" aria-labelledby="title desc">
  <title id="title">Nekoneko File Search Demo</title>
  <desc id="desc">A flat geometric logo for a multimodal file search demo with document, image, and citation symbols.</desc>
  <rect width="960" height="360" rx="0" fill="#f4efe2"/>
  <path d="M0 288 L960 238 L960 360 L0 360Z" fill="#c9d8d3"/>
  <g transform="translate(80 70)">
    <rect x="0" y="0" width="190" height="190" rx="24" fill="#fff8e9" stroke="#1d211d" stroke-width="10"/>
    <path d="M44 52 h82 l30 30 v72 H44Z" fill="#e7d775" stroke="#1d211d" stroke-width="8"/>
    <path d="M126 52 v34 h34" fill="none" stroke="#1d211d" stroke-width="8"/>
    <circle cx="76" cy="124" r="18" fill="#4b89dc"/>
    <path d="M118 124 l34 -22 v44Z" fill="#4b89dc"/>
    <path d="M58 162 h92" stroke="#1d211d" stroke-width="10"/>
  </g>
  <g transform="translate(330 90)" fill="#1d211d">
    <text x="0" y="38" font-family="Georgia, 'Hiragino Mincho ProN', serif" font-size="42" font-weight="700">Nekoneko Company</text>
    <text x="0" y="94" font-family="Georgia, 'Hiragino Mincho ProN', serif" font-size="58" font-weight="700">File Search Demo</text>
    <text x="2" y="144" font-family="ui-sans-serif, 'Hiragino Sans', sans-serif" font-size="24" font-weight="700" fill="#49615c">multimodal RAG with images, documents, metadata filters, and citations</text>
  </g>
  <g transform="translate(758 74)" fill="none" stroke="#1d211d" stroke-width="8" stroke-linecap="round" stroke-linejoin="round">
    <path d="M0 56 c20 -34 78 -34 98 0 c35 -10 68 15 68 50 c0 40 -34 58 -74 48 c-24 24 -70 18 -82 -16 c-38 2 -58 -34 -36 -64 c7 -9 15 -15 26 -18Z" fill="#fff8e9"/>
    <path d="M44 112 h78"/>
    <path d="M44 138 h56"/>
  </g>
</svg>
